<svg width="26" height="18" viewBox="0 0 26 18" fill="none" xmlns="http://www.w3.org/2000/svg">
<path d="M23.3356 7.13417H6.33891C6.33891 7.13417 9.91993 3.61218 10.015 3.49084C10.261 3.1793 10.4086 2.78579 10.4086 2.36275C10.4086 1.89053 10.2282 1.46422 9.93633 1.13629L9.78548 0.988719C9.45427 0.696859 9.02468 0.519775 8.54918 0.519775C8.06056 0.519775 7.61785 0.706696 7.28336 1.01167C7.28336 1.01167 0.426297 7.79659 0.393505 7.8425C0.150835 8.15404 0.00326538 8.54099 0.00326538 8.96731C0.00326538 9.39034 0.150835 9.7773 0.390225 10.0888C0.488604 10.2134 7.36862 17.0016 7.36862 17.0016C7.68999 17.2607 8.09663 17.4116 8.53934 17.4116C9.56576 17.4116 10.3987 16.5884 10.3987 15.5719C10.3987 15.1259 10.238 14.716 9.9724 14.3979L6.33891 10.7972H23.3356C24.3555 10.7972 25.1852 9.97734 25.1852 8.96731C25.1852 7.954 24.3555 7.13417 23.3356 7.13417Z" fill="#8248AE"/>
</svg>
