<svg width="40" height="35" viewBox="0 0 40 35" fill="none" xmlns="http://www.w3.org/2000/svg">
<path d="M0 25.9271H16.1094L13.5312 35L23.8438 25.9271H39.9531V0H0V25.9271ZM22.1094 16.4323L23.9271 12.7604C23.9583 12.7031 24 12.651 24.0469 12.599L34.0729 2.51562C34.2552 2.32292 34.4635 2.17188 34.7031 2.0625C34.9427 1.95833 35.1927 1.90104 35.4531 1.89583C35.7188 1.89063 35.9688 1.9375 36.2135 2.03646C36.4583 2.13542 36.6719 2.28125 36.8542 2.46354C37.0417 2.65104 37.1823 2.86979 37.2812 3.11458C37.3802 3.35937 37.4271 3.60937 37.4219 3.875C37.4167 4.14063 37.3646 4.39062 37.2552 4.63021C37.151 4.875 37 5.08333 36.8073 5.26562L35.901 6.18229L26.7812 15.349C26.7292 15.401 26.6771 15.4375 26.6146 15.474L22.974 17.3021C22.6979 17.4427 22.4479 17.401 22.224 17.1823C22.0052 16.9583 21.9688 16.7083 22.1094 16.4323ZM3.86458 5.1875H12.8854C13.0677 5.1875 13.2188 5.25 13.3438 5.375C13.4688 5.5 13.5312 5.65625 13.5312 5.83333C13.5312 6.01042 13.4688 6.16667 13.3438 6.29167C13.2188 6.41667 13.0677 6.48438 12.8854 6.48438H3.86458C3.6875 6.48438 3.53646 6.41667 3.41146 6.29167C3.28646 6.16667 3.22396 6.01042 3.22396 5.83333C3.22396 5.65625 3.28646 5.5 3.41146 5.375C3.53646 5.25 3.6875 5.1875 3.86458 5.1875ZM3.86458 9.72396H15.4635C15.6458 9.72396 15.7969 9.78646 15.9219 9.91146C16.0469 10.0417 16.1094 10.1927 16.1094 10.3698C16.1094 10.5521 16.0469 10.7031 15.9219 10.8281C15.7969 10.9583 15.6458 11.0208 15.4635 11.0208H3.86458C3.6875 11.0208 3.53646 10.9583 3.41146 10.8281C3.28646 10.7031 3.22396 10.5521 3.22396 10.3698C3.22396 10.1927 3.28646 10.0417 3.41146 9.91146C3.53646 9.78646 3.6875 9.72396 3.86458 9.72396ZM3.86458 14.2604H19.974C20.1562 14.2604 20.3073 14.3229 20.4323 14.4479C20.5573 14.5781 20.6198 14.7292 20.6198 14.9062C20.6198 15.0885 20.5573 15.2396 20.4323 15.3646C20.3073 15.4948 20.1562 15.5573 19.974 15.5573H3.86458C3.6875 15.5573 3.53646 15.4948 3.41146 15.3646C3.28646 15.2396 3.22396 15.0885 3.22396 14.9062C3.22396 14.7292 3.28646 14.5781 3.41146 14.4479C3.53646 14.3229 3.6875 14.2604 3.86458 14.2604ZM3.86458 18.7969H25.776C25.9531 18.7969 26.1042 18.8594 26.2292 18.9844C26.3594 19.1146 26.4219 19.2656 26.4219 19.4427C26.4219 19.625 26.3594 19.776 26.2292 19.901C26.1042 20.0313 25.9531 20.0938 25.776 20.0938H3.86458C3.6875 20.0938 3.53646 20.0313 3.41146 19.901C3.28646 19.776 3.22396 19.625 3.22396 19.4427C3.22396 19.2656 3.28646 19.1146 3.41146 18.9844C3.53646 18.8594 3.6875 18.7969 3.86458 18.7969Z" fill="#8248AE"/>
<path d="M35.901 4.34888C36.026 4.22388 36.0885 4.06763 36.0885 3.89054C36.0885 3.70825 36.026 3.55721 35.901 3.427C35.7708 3.302 35.6197 3.2395 35.4426 3.2395C35.2604 3.2395 35.1093 3.302 34.9843 3.427L34.5312 3.89054L35.4426 4.802L35.901 4.34888Z" fill="#8248AE"/>
<path d="M25.4166 13.0573L33.6198 4.80725L34.5312 5.72392L26.3281 13.9739L25.4166 13.0573Z" fill="#8248AE"/>
<path d="M24.6823 14.151L24.125 15.2708L25.2396 14.7135L24.6823 14.151Z" fill="#8248AE"/>
</svg>
