<svg width="26" height="18" viewBox="0 0 26 18" fill="none" xmlns="http://www.w3.org/2000/svg">
<mask id="mask0_2_738" style="mask-type:luminance" maskUnits="userSpaceOnUse" x="0" y="0" width="26" height="18">
<path d="M26 0.470581H0.814816V17.4706H26V0.470581Z" fill="white"/>
</mask>
<g mask="url(#mask0_2_738)">
<path d="M2.66436 7.13417H19.6611C19.6611 7.13417 16.0801 3.61218 15.985 3.49084C15.739 3.1793 15.5914 2.78579 15.5914 2.36275C15.5914 1.89053 15.7718 1.46422 16.0637 1.13629L16.2145 0.988719C16.5457 0.696859 16.9753 0.519775 17.4508 0.519775C17.9394 0.519775 18.3821 0.706696 18.7166 1.01167C18.7166 1.01167 25.5737 7.79659 25.6065 7.8425C25.8492 8.15404 25.9967 8.54099 25.9967 8.96731C25.9967 9.39034 25.8492 9.7773 25.6098 10.0888C25.5114 10.2134 18.6314 17.0016 18.6314 17.0016C18.31 17.2607 17.9034 17.4116 17.4607 17.4116C16.4342 17.4116 15.6013 16.5884 15.6013 15.5719C15.6013 15.1259 15.762 14.716 16.0276 14.3979L19.6611 10.7972H2.66436C1.6445 10.7972 0.814828 9.97734 0.814828 8.96731C0.814828 7.954 1.6445 7.13417 2.66436 7.13417Z" fill="#8248AE"/>
</g>
</svg>
