<svg width="40" height="30" viewBox="0 0 40 30" fill="none" xmlns="http://www.w3.org/2000/svg">
<path d="M35 0H1.66667C0.744792 0 0 0.744792 0 1.66667V25H2.5V2.5H35V0ZM9.20312 12.5C9.20312 14.5729 10.8802 16.25 12.9531 16.25C15.026 16.25 16.7031 14.5729 16.7031 12.5C16.7031 10.4323 15.026 8.75 12.9531 8.75C10.8802 8.75 9.20312 10.4323 9.20312 12.5ZM37.5 17.5833L32.526 12.5L24.3646 20.1823L19.9948 16.5781L7.5 27.5V7.5H37.5V17.5833ZM5 6.66667V28.3333C5 29.2552 5.74479 30 6.66667 30H38.3333C39.25 30 40 29.2552 40 28.3333V6.66667C40 5.74479 39.25 5 38.3333 5H6.66667C5.74479 5 5 5.74479 5 6.66667Z" fill="#8248AE"/>
</svg>
