<svg width="41" height="41" viewBox="0 0 41 41" fill="none" xmlns="http://www.w3.org/2000/svg">
<path fill-rule="evenodd" clip-rule="evenodd" d="M19.9948 0C18.6823 0 17.3802 0.130209 16.0938 0.385417C14.8021 0.640626 13.5521 1.02083 12.3385 1.52604C11.125 2.02604 9.97396 2.64583 8.88021 3.375C7.79167 4.10417 6.78125 4.93229 5.85417 5.86458C4.92187 6.79167 4.09375 7.80208 3.36458 8.89583C2.63542 9.98958 2.02083 11.1406 1.52083 12.3542C1.01563 13.5677 0.635416 14.8177 0.380208 16.1042C0.125 17.3958 0 18.6927 0 20.0104C0 21.3229 0.125001 22.625 0.385417 23.9115C0.640626 25.1979 1.02083 26.4479 1.52083 27.6615C2.02604 28.875 2.64063 30.026 3.375 31.1198C4.10417 32.2135 4.93229 33.224 5.85938 34.151C6.79167 35.0781 7.80208 35.9063 8.89063 36.6354C9.98437 37.3646 11.1354 37.9844 12.349 38.4844C13.5625 38.9844 14.8177 39.3646 16.1042 39.6198C17.3906 39.875 18.6927 40.0052 20.0052 40.0052C21.3177 40.0052 22.6198 39.875 23.9063 39.6198C25.1979 39.3646 26.4479 38.9844 27.6615 38.4792C28.875 37.9792 30.026 37.3594 31.1198 36.6302C32.2083 35.901 33.2188 35.0729 34.1458 34.1406C35.0781 33.2135 35.9063 32.2031 36.6354 31.1094C37.3646 30.0208 37.9792 28.8646 38.4844 27.651C38.9844 26.4375 39.3646 25.1875 39.6198 23.901C39.875 22.6094 40.0052 21.3125 40.0052 20C40 18.6875 39.8698 17.3854 39.6094 16.099C39.3542 14.8125 38.974 13.5625 38.4688 12.349C37.9635 11.1354 37.349 9.98437 36.6198 8.89583C35.8854 7.80208 35.0573 6.79167 34.1302 5.86458C33.2031 4.9375 32.1927 4.10938 31.099 3.38021C30.0104 2.65104 28.8542 2.03125 27.6458 1.53125C26.4323 1.02604 25.1823 0.645833 23.8958 0.390625C22.6042 0.130208 21.3073 0 19.9948 0ZM25.5156 36.875C24.651 37.0521 24.3281 36.5156 24.3281 36.0573C24.3281 35.4688 24.3542 33.6042 24.3542 31.2865C24.3542 29.6719 23.8073 28.6198 23.1823 28.0833C27.0365 27.6458 31.0938 26.1823 31.0938 19.5208C31.1198 17.7292 30.526 16.1771 29.3073 14.8646C29.4844 14.4271 30.099 12.651 29.1406 10.2604C29.1406 10.2604 27.6875 9.78646 24.3698 12.0313C21.4792 11.2552 18.5938 11.2552 15.7031 12.0313C12.3854 9.8125 10.9323 10.2604 10.9323 10.2604C9.98437 12.6458 10.5885 14.4167 10.7656 14.8646C9.55729 16.1771 8.96354 17.7292 8.99479 19.5208C8.99479 26.1563 13.026 27.6458 16.875 28.0833C16.3802 28.5156 15.9219 29.2656 15.7656 30.4063C14.7708 30.849 12.2812 31.5885 10.7292 28.974C10.3958 28.4531 9.42708 27.1771 8.0625 27.1875C6.60417 27.2135 7.47396 28.0208 8.07292 28.3385C8.8125 28.7604 9.65625 30.2917 9.85938 30.7917C10.2031 31.7708 11.3281 33.6354 15.6771 32.8333C15.6771 34.2865 15.7031 35.651 15.7031 36.0521C15.7031 36.5156 15.3854 37.0208 14.5156 36.8698C13.875 36.6563 13.2448 36.401 12.6302 36.1146C12.0156 35.8229 11.4219 35.5 10.8438 35.1406C10.2708 34.7813 9.71875 34.3854 9.1875 33.9635C8.65625 33.5417 8.15625 33.0833 7.67708 32.6042C7.20312 32.1198 6.75521 31.6094 6.33854 31.0729C5.92708 30.5365 5.54167 29.9792 5.19271 29.3958C4.83854 28.8177 4.52604 28.2187 4.24479 27.599C3.96354 26.9792 3.71875 26.349 3.51563 25.7031C3.30729 25.0573 3.14063 24.3958 3.01563 23.7344C2.88542 23.0677 2.79688 22.3958 2.74479 21.7188C2.69792 21.0417 2.6875 20.3646 2.71875 19.6875C2.74479 19.0052 2.81771 18.3333 2.92708 17.6615C3.03646 16.9948 3.18229 16.3333 3.36979 15.6823C3.55729 15.026 3.78125 14.3906 4.04167 13.7656C4.30729 13.1354 4.60417 12.5313 4.9375 11.9375C5.27083 11.349 5.63542 10.776 6.03646 10.2292C6.4375 9.68229 6.86979 9.16146 7.33333 8.66146C7.79167 8.16667 8.28125 7.69792 8.80208 7.25521C9.31771 6.81771 9.85938 6.41146 10.4219 6.03646C10.9896 5.65625 11.5729 5.31771 12.1771 5.01042C12.7813 4.70313 13.4062 4.43229 14.0417 4.19792C14.6771 3.96354 15.3281 3.76563 15.9844 3.60938C16.6458 3.45313 17.3125 3.33333 17.9896 3.25521C18.6615 3.17188 19.3385 3.13542 20.0156 3.13542C20.6927 3.13542 21.3698 3.17188 22.0469 3.25521C22.7188 3.33333 23.3854 3.45313 24.0469 3.60938C24.7083 3.76563 25.3542 3.96354 25.9896 4.19792C26.6302 4.43229 27.25 4.70313 27.8542 5.01042C28.4583 5.31771 29.0469 5.65625 29.6094 6.03646C30.1771 6.41146 30.7135 6.81771 31.2344 7.25521C31.75 7.69792 32.2396 8.16667 32.7031 8.66146C33.1615 9.16146 33.5938 9.68229 33.9948 10.2292C34.3958 10.776 34.7604 11.349 35.0938 11.9375C35.4323 12.5313 35.7292 13.1354 35.9896 13.7656C36.25 14.3906 36.474 15.026 36.6615 15.6823C36.849 16.3333 37 16.9948 37.1094 17.6615C37.2188 18.3333 37.2865 19.0052 37.3177 19.6875C37.3438 20.3646 37.3385 21.0417 37.2865 21.7188C37.2344 22.3958 37.1458 23.0677 37.0208 23.7344C36.8906 24.3958 36.724 25.0573 36.5156 25.7031C36.3125 26.349 36.0677 26.9792 35.7865 27.599C35.5104 28.2187 35.1927 28.8177 34.8438 29.3958C34.4896 29.9792 34.1094 30.5365 33.6927 31.0729C33.276 31.6094 32.8281 32.1198 32.3542 32.6042C31.875 33.0833 31.375 33.5417 30.8438 33.9635C30.3177 34.3854 29.7604 34.7813 29.1875 35.1406C28.6094 35.5 28.0156 35.8229 27.401 36.1146C26.7917 36.401 26.1615 36.6563 25.5156 36.8698V36.875Z" fill="#8248AE"/>
</svg>
