<svg width="40" height="40" viewBox="0 0 40 40" fill="none" xmlns="http://www.w3.org/2000/svg">
<path d="M36.6146 0H3.31771C1.47917 0 0 1.5 0 3.32292V36.6771C0 38.5208 1.5 40 3.31771 40H36.599C38.4375 40 39.9167 38.5 39.9167 36.6771V3.32292C39.9375 1.5 38.4583 0 36.6146 0ZM11.8229 33H5.92188V15.2708H11.8229V33ZM8.86458 13.1302C7 13.1302 5.5 11.625 5.5 9.76563C5.5 7.90625 7 6.40625 8.86458 6.40625C10.724 6.40625 12.224 7.90625 12.224 9.76563C12.224 11.625 10.724 13.1302 8.86458 13.1302ZM34.0365 33H28.1146L27.974 22.474C27.974 22.474 28.1146 19.6719 25.0521 19.6927C21.9896 19.7135 21.5677 22.474 21.5677 22.474V33H15.6042V15.2708H21.3281V17.7083C21.3281 17.7083 21.5677 16.9115 22.8906 15.9688C24.2083 15.0313 26.3906 14.8281 27.3333 14.8698C28.2708 14.9063 29.5521 14.75 31.6927 16.2292C33.9948 17.8125 34.0573 21.9531 34.0573 21.9531L34.0365 33Z" fill="#8248AE"/>
</svg>
