<svg width="17" height="21" viewBox="0 0 17 21" fill="none" xmlns="http://www.w3.org/2000/svg">
<path d="M8.49858 2.31506C10.2981 2.31506 11.7535 3.72327 11.7535 5.4596V8.60868H5.2437V5.4596C5.2437 3.72327 6.69906 2.31506 8.49858 2.31506ZM14.1184 8.63147V5.43681C14.1184 2.43811 11.601 0.0045166 8.49858 0.0045166C5.39612 0.0045166 2.87875 2.43811 2.87875 5.43681V8.63147C1.78723 8.7773 0.946472 9.67509 0.946472 10.7688V17.9602C0.946472 19.1497 1.94949 20.1204 3.18359 20.1204H13.8136C15.0477 20.1204 16.0507 19.1497 16.0507 17.9602V10.7688C16.0507 9.67509 15.2099 8.7773 14.1184 8.63147Z" fill="#8248AE"/>
</svg>
