<svg width="23" height="28" viewBox="0 0 23 28" fill="none" xmlns="http://www.w3.org/2000/svg">
<mask id="mask0_2_743" style="mask-type:luminance" maskUnits="userSpaceOnUse" x="0" y="0" width="23" height="28">
<path d="M0 0.470581H23V27.5294H0V0.470581Z" fill="white"/>
</mask>
<g mask="url(#mask0_2_743)">
<path d="M22.9331 17.7382C22.9331 17.7417 22.9331 17.7452 22.9331 17.7523C22.9331 17.3013 22.764 16.8926 22.4856 16.5826L22.3412 16.4381C22.0311 16.1598 21.6189 15.9906 21.1679 15.9906C20.7028 15.9906 20.2836 16.1703 19.9665 16.4628L19.8749 16.5544C19.7339 16.7094 19.6177 16.8891 19.5331 17.0864C19.4485 17.2907 19.4027 17.5162 19.4027 17.7523C19.4027 17.7629 19.4027 17.777 19.4027 17.7875C18.5783 21.3531 15.3756 24.0167 11.5599 24.0167C7.12057 24.0167 3.5092 20.4124 3.5092 15.9801C3.5092 12.3229 5.9755 9.23651 10.3197 8.26409V8.61994H10.4466V12.9747L19.1702 6.86534L10.4466 0.470581V4.67034C3.98485 5.74141 -0.00350952 10.4027 -0.00350952 15.9801C-0.00350952 22.3467 5.18276 27.5259 11.5599 27.5259C17.3381 27.5259 22.1368 23.2733 22.9894 17.7382C22.9718 17.7382 22.9507 17.7382 22.9331 17.7382Z" fill="#8248AE"/>
</g>
</svg>
